PathFileType	4	(X/Y/Z)	C:\Users\WrightLab\Desktop\Jo\P4V131.trc
DataRate	CameraRate	NumFrames	NumMarkers	Units	OrigDataRate	OrigDataStartFrame	OrigNumFrames
100.00	100.00	       23	19	mm	100.00	249	       497
Frame#	Time	Headset_Front			Headset_Back			Headset_Left			Headset_Right			Left_Shoulder			Right_Shoulder			Sternum			C7			Left Elbow			Right Elbow			Left Wrist			Right Wrist			Left ASIS			Right ASIS			S2			Left Knee			Right Knee			Left Ankle			Right Ankle			
		X1	Y1	Z1	X2	Y2	Z2	X3	Y3	Z3	X4	Y4	Z4	X5	Y5	Z5	X6	Y6	Z6	X7	Y7	Z7	X8	Y8	Z8	X9	Y9	Z9	X10	Y10	Z10	X11	Y11	Z11	X12	Y12	Z12	X13	Y13	Z13	X14	Y14	Z14	X15	Y15	Z15	X16	Y16	Z16	X17	Y17	Z17	X18	Y18	Z18	X19	Y19	Z19	

249	2.480	-34.43518	1671.19653	777.54901							-161.00354	1691.36987	696.01373	54.43410	1515.29431	488.39255	-215.26927	1513.60535	634.04901	-15.04209	1456.07056	656.39441	-108.26315	1543.99243	515.95978	159.42355	1172.59619	374.93613	-328.06119	1165.14063	721.24292	223.98735	877.18915	452.93265	-239.08241	921.14581	880.90173	112.80602	1041.78723	574.26013	-172.28654	1001.99536	750.75983				197.46086	574.50403	648.18396	-186.41472	519.84949	728.54108	152.19878	68.06668	629.87183	-336.02533	275.00159	333.98941	
250	2.490	-30.25048	1674.17041	788.26953							-155.34010	1693.33374	705.83069	62.26651	1517.68994	502.21698	-209.55692	1516.24646	642.58319	-9.96956	1458.77942	667.13452	-101.60444	1547.32056	526.16534	167.62756	1175.86450	386.38693	-322.56195	1167.40503	728.24298	232.28127	881.23029	466.30453	-234.91988	921.50116	885.90149	118.12437	1043.75720	583.14429	-167.68866	1005.27826	758.14941				199.95815	574.32019	650.87494	-175.14598	524.07996	747.53406	152.13329	68.63049	629.80042	-319.15903	282.34595	349.13638	
251	2.500	-26.09736	1677.07629	799.00568							-150.14403	1695.60376	715.73102	68.87484	1521.22498	513.20935	-204.25813	1519.07764	651.96881	-4.84495	1460.55542	677.22510	-95.38979	1550.11694	536.20819	176.54698	1179.32275	399.35727	-318.14557	1170.54626	735.18762	238.50215	884.86053	480.35291	-230.69659	922.08459	890.62561	124.23881	1045.98804	592.42773	-162.33342	1007.81836	766.52460				201.39879	573.29272	654.31152	-162.92575	528.42749	766.20819	151.95319	68.96933	630.21893	-303.15619	288.05688	365.35919	
252	2.510	-20.83801	1679.37805	809.38239							-146.12593	1698.42151	725.79663	75.80568	1524.24377	524.98047	-199.13640	1521.43726	660.40076	-0.58860	1463.06982	688.63312	-89.08071	1553.02148	546.06104	184.89902	1182.71460	411.87042	-313.88287	1172.89014	741.42798	245.18730	887.68335	494.71176	-227.57573	924.84821	896.24878	129.27629	1048.29980	601.84210	-158.22591	1011.26447	773.79553				202.22781	572.99860	657.43597	-150.88295	532.92383	784.35223	151.89259	69.27945	630.57318	-288.43985	292.53653	383.41373	
253	2.520	-16.33706	1681.98792	819.86450							-140.05447	1701.05469	735.34430	82.06886	1527.20154	537.38745	-194.06120	1524.51941	669.49567	4.22766	1465.07117	698.53070	-83.05688	1555.97339	556.04199	193.65607	1185.83313	424.84622	-310.10138	1175.14490	747.17328	252.41786	890.93750	509.88736	-224.04660	925.44727	900.37329	134.80093	1050.50708	610.14539	-153.05490	1015.45386	782.65002				202.94507	573.22058	661.30719	-140.33612	538.11926	802.48962	151.69157	69.72722	630.75928	-272.76303	295.23303	401.20810	
254	2.530	-12.70710	1684.44019	830.48535							-136.29271	1704.70020	745.42590	88.57541	1529.74365	549.85822	-189.15430	1527.05518	677.50439	8.30121	1467.52698	708.90894	-77.11883	1558.94226	565.75665	202.18234	1189.28711	437.90479	-306.40625	1177.21021	752.31964	259.51328	894.50446	525.76556	-220.52141	927.23926	905.51709	139.74858	1052.39844	619.05054	-150.08994	1018.25873	790.01630				203.83557	572.63489	665.67188	-129.78725	543.01343	820.83276	151.39879	70.05694	631.41888	-257.62378	296.83618	420.27103	
255	2.540	-8.27576	1686.54224	840.93933							-130.77153	1706.83582	755.06415	94.46755	1532.96313	559.83331	-184.80305	1529.54968	686.44525	12.86430	1469.35474	719.51404	-71.25996	1561.85974	575.50183	210.62312	1192.34509	451.03955	-303.76639	1179.65112	757.90918	266.56555	898.10132	540.83496	-217.84764	929.22144	910.57306	143.89189	1053.22925	628.47693	-145.16460	1022.33917	797.55243				204.97243	572.93713	669.43030	-120.22103	548.84564	838.99811	151.37486	70.46430	631.87024	-241.58510	295.85236	439.19958	
256	2.550	-4.81045	1688.60059	851.42450							-128.09314	1709.09900	765.14563	100.47993	1535.93933	572.26788	-180.01724	1531.92590	694.84460	17.14065	1471.42139	729.32001	-65.61339	1564.58118	585.27661	219.12286	1195.09961	465.29132	-300.68494	1181.84729	762.91431	273.14285	900.87604	556.95477	-214.97041	931.51569	915.58624	149.45845	1055.39746	637.38409	-142.22112	1025.30493	805.28967	-70.48753	1055.22986	544.18530	205.93356	573.48468	673.41467	-110.17943	554.26923	857.16064	151.07886	70.84925	632.43304	-225.68716	294.27658	458.79529	
257	2.560	-1.27823	1690.20093	861.81427							-122.90369	1710.48645	774.59680	105.59264	1538.52222	583.38702	-175.06702	1533.85217	702.90753	20.94624	1473.67407	739.58051	-60.07532	1566.95459	594.86401	227.46709	1197.98743	479.05142	-297.65759	1183.68408	767.73651	281.43549	904.37360	572.32568	-213.04564	934.44916	921.79346	154.62691	1055.63940	645.52441	-137.29985	1028.79211	812.34332	-65.71165	1056.66260	554.49384	207.07434	573.26141	677.97888	-101.69460	560.34625	874.91516	151.34978	71.75747	632.76251	-209.73260	291.43079	479.09000	
258	2.570	2.08701	1691.57666	872.05292							-120.33132	1712.29919	784.51715	110.70799	1540.99292	595.24207	-171.37408	1535.81165	711.36768	25.01292	1475.51306	749.49829	-54.69836	1569.11035	604.43988	236.55960	1201.39404	492.96344	-294.97043	1185.76086	772.81592	288.63504	907.88141	588.89795	-211.38553	935.60632	926.89319	159.75926	1057.37451	654.63824	-134.00024	1031.88232	820.09814	-61.29443	1058.07788	563.51312	208.22926	573.00031	681.12354	-93.00722	566.43140	892.93994	151.66832	72.06157	632.62372	-194.21935	287.28210	499.55847	
259	2.580	5.25319	1692.89648	882.42731							-116.01682	1713.40112	793.98438	116.02294	1543.46460	603.67944	-166.78700	1537.33984	719.37280	28.70015	1477.47754	759.81720	-49.36841	1571.07251	613.96490	243.78264	1203.56091	507.58908	-291.90790	1187.21851	777.36871	294.12839	910.27777	606.19458	-209.34685	937.83838	932.96997	163.06578	1058.39978	662.34412	-129.70958	1034.02356	827.69922	-57.17188	1059.92969	571.34656	209.28772	573.51953	683.72766	-85.45354	571.94373	909.94446	151.00012	72.06510	632.77142	-178.28923	282.16699	520.46393	
260	2.590	8.29850	1693.76721	892.67877							-112.98268	1714.58093	803.54694	121.81540	1545.60339	617.08441	-162.42503	1538.63293	727.35339	32.56586	1478.75720	769.62109				253.13968	1206.31592	521.40155	-289.42722	1188.84766	782.02386	301.17407	913.63947	623.09967	-208.74669	939.69659	937.84308	167.24153	1059.41895	670.47015	-124.68135	1036.84131	836.13879	-53.04011	1061.74634	579.20404	209.80295	573.23981	687.36816	-79.20167	578.13849	927.24908	150.43365	72.54639	633.97229	-162.08983	275.40234	541.98053	
261	2.600	10.75981	1694.85083	903.00464							-109.24392	1715.02234	812.81567	127.30264	1547.83240	628.34351	-158.28168	1539.87561	735.14520	35.93377	1479.92334	779.56622				261.48682	1208.15613	536.01953	-287.09238	1189.95361	786.91815	307.03268	915.80627	638.85034	-207.64891	941.15033	943.60657	171.21687	1059.66199	678.95947	-120.99885	1039.52734	843.26221	-48.56622	1062.05359	588.36865	210.44550	573.06787	690.33282	-73.81048	583.88416	943.73389	150.46605	72.68533	634.40192	-146.23837	268.26123	563.95660	
262	2.610	13.33472	1695.55432	913.25543							-105.87958	1715.34570	822.19757	132.44109	1549.11597	638.83954	-154.08722	1540.78333	743.71863	39.61014	1480.91418	789.53387				268.97501	1209.64697	550.37653	-283.97360	1190.65710	791.13568	314.13406	918.61255	656.91364	-206.16885	942.16431	949.05017	175.23181	1060.61694	686.86487	-116.85033	1041.27588	850.54767	-45.19452	1063.73499	595.64972	210.78540	573.05219	693.75275	-67.62119	588.91205	959.63892	150.54100	73.04133	634.72229	-129.97194	259.61954	586.97662	
263	2.620	15.18318	1696.13708	923.59656							-103.49167	1715.65137	831.70013	137.79579	1550.47107	651.24268	-150.30954	1541.28772	751.74792	42.82554	1481.55298	799.88788				277.19333	1211.33118	564.98053	-281.84344	1191.58105	795.91559	320.85654	921.29980	674.43402	-205.45796	943.04620	954.99738	179.00136	1060.98950	695.88446	-113.09972	1043.07971	858.38116	-40.17453	1064.43298	604.94153	211.55142	572.80554	697.32385	-63.29364	595.05560	975.27887	150.20377	73.09153	635.06879	-114.02828	250.66161	610.36566	
264	2.630	17.49025	1696.49011	933.86383							-101.30107	1716.12708	841.20947	142.26067	1550.63806	662.33380	-146.25191	1541.70923	759.50677	46.47635	1481.76477	808.99969				284.52515	1212.31226	579.79980	-278.83948	1192.27551	800.36224	327.93564	923.31012	691.84760	-204.72134	944.00659	960.68683	183.17529	1061.45288	706.07190	-109.47263	1044.73059	866.17291	-36.80288	1065.17590	613.05127	212.01740	572.90289	700.38159	-59.99382	600.31604	990.84399	149.81348	73.36086	635.25104	-97.80370	240.86057	634.81116	
265	2.640	20.08125	1696.30579	944.04504							-97.49927	1715.84509	850.49573	146.67546	1552.42114	672.29523	-143.43721	1542.47998	767.94897	48.99336	1482.25586	819.76056				292.59634	1213.58667	594.82086	-276.04242	1192.35474	805.60443	333.62881	925.38702	710.44971	-204.26265	944.46027	966.87946	186.26765	1061.28076	712.89374	-106.34539	1045.87415	874.24744	-33.21485	1066.19775	621.79443	212.37843	572.68494	704.00043	-55.52306	604.61621	1005.09644	149.75063	73.40488	635.27722	-81.79520	230.19484	659.92297	
266	2.650	22.06310	1696.22583	954.25421							-94.62654	1715.66760	859.81622	151.45685	1552.12146	684.44604	-139.07799	1542.04797	775.57422	52.07695	1481.94397	829.73749				299.84024	1214.53003	609.59906	-273.65338	1192.44910	810.66168	340.43839	928.00336	727.98938	-204.02103	944.43683	973.40552	190.05688	1061.21838	722.14673	-102.82783	1046.50537	882.11841	-29.14443	1066.51343	629.57733	213.19087	571.89850	707.34515	-52.94814	609.20270	1019.03986	149.46986	73.50310	635.54901	-66.02251	219.81187	686.33063	
267	2.660	23.79649	1696.19397	964.36407							-93.06265	1715.27783	869.45905	156.29503	1552.86865	696.16431	-136.49799	1542.28101	783.47876	55.22752	1481.85168	839.53876				307.34259	1215.16370	624.66217	-270.47043	1192.53125	815.32233	346.90659	929.46057	745.97797	-203.44414	944.24805	978.69037	193.46124	1060.88660	731.28992	-99.95852	1047.33618	890.14496	-24.06859	1066.20264	639.46381	213.91902	571.79486	710.21448	-50.56098	613.31244	1032.38794	149.07530	73.56410	635.95868	-51.22681	210.10684	713.23737	
268	2.670	25.20886	1695.66150	974.63306							-90.36295	1714.34753	878.79761	160.66342	1552.58264	707.17505	-132.53766	1542.09583	791.36957	58.00322	1481.20557	849.89862				314.27176	1215.49585	640.32117	-267.68756	1192.25171	821.09454	353.93588	931.36688	764.99646	-203.75931	944.04303	984.86707	197.48624	1060.77271	741.45117	-97.25829	1047.79517	897.92566	-20.95045	1067.45630	647.53857	213.97894	571.63885	713.86261	-47.91396	616.63403	1045.34814	149.16920	73.64706	636.32758	-35.16751	198.88043	741.35638	
269	2.680	26.98230	1694.61743	984.84833							-88.09952	1713.72119	888.13049	164.55078	1552.85840	719.11530	-129.97003	1541.92432	799.91394	60.34629	1481.06372	859.82281				321.06613	1215.92957	655.30084	-264.94461	1191.63501	826.85535	360.03159	933.01190	783.40259	-203.21982	942.81281	990.77881	200.49036	1060.52808	750.61261	-94.28439	1047.81274	905.64166	-17.42461	1067.69983	655.41473	214.69444	571.41443	718.07129	-45.60638	619.70386	1057.00366	149.25203	74.21824	635.46008	-20.83240	188.35930	770.50055	
270	2.690	28.80618	1693.94971	994.98615							-85.44408	1712.70166	897.47522	168.81654	1552.04773	730.36121	-126.80553	1541.18701	808.15741	62.95018	1480.19861	869.91254				327.55106	1215.95947	671.01221	-261.90036	1190.99670	832.15509	364.91940	933.55670	799.89526	-203.07074	941.78613	996.61243	203.88020	1058.92480	760.08612	-92.21581	1047.66125	913.22498	-12.00001	1067.25928	665.30267	215.64897	571.18219	721.80353	-44.30819	622.42651	1068.12378	149.25938	74.20500	635.65137	-5.50871	178.10382	799.88879	
271	2.700	30.26906	1692.80798	1005.17804							-83.83384	1711.96741	906.97211	172.50404	1551.85657	742.87280	-123.72892	1540.65747	815.92395	64.43584	1479.65686	880.28326				333.74609	1216.41333	686.68695	-259.12784	1190.53589	837.86035	371.38644	935.65326	818.51923	-202.70671	940.65576	1002.86621	207.94775	1058.77319	772.22662	-90.00659	1047.41638	920.93445	-8.21478	1066.95630	672.72528	216.42287	570.49103	726.49780	-42.93365	624.58887	1079.02380	149.17386	74.21880	635.78357	7.63360	168.27774	830.52899	
